<?xml version="1.0" encoding="UTF-8"?>
<svg width="1543px" height="703px" viewBox="0 0 1543 703" version="1.1" xmlns="http://www.w3.org/2000/svg" xmlns:xlink="http://www.w3.org/1999/xlink">
    <!-- Generator: Sketch 45.1 (43504) - http://www.bohemiancoding.com/sketch -->
    <title>code</title>
    <desc>Created with Sketch.</desc>
    <defs></defs>
    <g id="Page-1" stroke="none" stroke-width="1" fill="none" fill-rule="evenodd">
        <g id="code" transform="translate(12.000000, 0.000000)">
            <g id="react" transform="translate(0.000000, 15.000000)">
                <circle id="Oval" fill="#000000" fill-rule="nonzero" cx="269.529" cy="237.628" r="50.167"></circle>
                <path d="M269.529,135.628 C336.885,135.628 399.457,145.293 446.636,161.535 C503.48,181.104 538.43,210.768 538.43,237.628 C538.43,265.619 501.389,297.131 440.347,317.356 C394.196,332.647 333.468,340.628 269.529,340.628 C203.975,340.628 141.899,333.136 95.239,317.187 C36.193,297.005 0.628,265.084 0.628,237.628 C0.628,210.986 33.998,181.552 90.043,162.012 C137.398,145.503 201.515,135.628 269.529,135.628 Z" id="Shape" stroke="#000000" stroke-width="24"></path>
                <path d="M180.736,186.922 C214.385,128.574 254.017,79.198 291.656,46.442 C337.006,6.976 380.163,-8.481 403.431,4.937 C427.679,18.92 436.473,66.751 423.498,129.733 C413.688,177.351 390.264,233.945 358.322,289.334 C325.573,346.122 288.072,396.153 250.945,428.606 C203.964,469.674 158.545,484.535 134.76,470.819 C111.681,457.509 102.854,413.898 113.926,355.586 C123.281,306.316 146.758,245.841 180.736,186.922 Z" id="Shape" stroke="#000000" stroke-width="24"></path>
                <path d="M180.821,289.482 C147.075,231.19 124.09,172.195 114.509,123.227 C102.965,64.228 111.127,19.118 134.373,5.661 C158.597,-8.363 204.428,7.905 252.513,50.601 C288.869,82.881 326.201,131.438 358.236,186.774 C391.08,243.507 415.697,300.983 425.272,349.356 C437.389,410.569 427.581,457.34 403.819,471.096 C380.762,484.444 338.57,470.312 293.58,431.597 C255.567,398.886 214.898,348.344 180.821,289.482 Z" id="Shape" stroke="#000000" stroke-width="24"></path>
            </g>
            <g id="text-expand" transform="translate(120.000000, 193.000000)" fill="#333333">
                <path d="M68,508 L56.24,508 L35.84,476.2 L19.88,476.2 L19.88,508 L9.92,508 L9.92,427.96 L42.08,427.96 C56.72,427.96 67.16,437.32 67.16,452.08 C67.16,466.48 57.32,474.4 46.4,475.36 L68,508 Z M40.88,467.44 C50.36,467.44 56.84,461.08 56.84,452.08 C56.84,443.08 50.36,436.84 40.88,436.84 L19.88,436.84 L19.88,467.44 L40.88,467.44 Z M108.68,509.44 C91.52,509.44 79.16,497.08 79.16,478.96 C79.16,462.16 91.16,448.6 107.72,448.6 C125.24,448.6 135.56,462.28 135.56,479.68 L135.56,481.96 L88.64,481.96 C89.36,492.88 97.04,502 109.52,502 C116.12,502 122.84,499.36 127.4,494.68 L131.72,500.56 C125.96,506.32 118.16,509.44 108.68,509.44 Z M126.68,475.36 C126.56,466.72 120.8,456.04 107.6,456.04 C95.24,456.04 89.12,466.48 88.64,475.36 L126.68,475.36 Z M195.32,508 L186.32,508 L186.32,501.4 C181.52,506.68 174.92,509.44 167.12,509.44 C157.28,509.44 146.84,502.84 146.84,490.24 C146.84,477.28 157.28,471.16 167.12,471.16 C175.04,471.16 181.64,473.68 186.32,479.08 L186.32,468.64 C186.32,460.84 180.08,456.4 171.68,456.4 C164.72,456.4 159.08,458.92 153.92,464.44 L149.72,458.2 C155.96,451.72 163.4,448.6 172.88,448.6 C185.12,448.6 195.32,454.12 195.32,468.16 L195.32,508 Z M170.36,502.96 C176.72,502.96 182.84,500.56 186.32,495.76 L186.32,484.84 C182.84,480.04 176.72,477.64 170.36,477.64 C161.96,477.64 156.08,482.92 156.08,490.36 C156.08,497.68 161.96,502.96 170.36,502.96 Z M238.88,509.44 C249.44,509.44 255.68,505.12 260.12,499.36 L254.12,493.84 C250.28,499 245.36,501.4 239.36,501.4 C227,501.4 219.32,491.8 219.32,478.96 C219.32,466.12 227,456.64 239.36,456.64 C245.36,456.64 250.28,458.92 254.12,464.2 L260.12,458.68 C255.68,452.92 249.44,448.6 238.88,448.6 C221.6,448.6 209.96,461.8 209.96,478.96 C209.96,496.24 221.6,509.44 238.88,509.44 Z M287.36,509.44 C292.64,509.44 295.88,507.88 298.16,505.72 L295.52,499 C294.32,500.32 291.92,501.4 289.4,501.4 C285.44,501.4 283.52,498.28 283.52,493.96 L283.52,457.96 L295.28,457.96 L295.28,450.04 L283.52,450.04 L283.52,434.2 L274.52,434.2 L274.52,450.04 L264.92,450.04 L264.92,457.96 L274.52,457.96 L274.52,495.88 C274.52,504.52 278.84,509.44 287.36,509.44 Z" id="React"></path>
                <path d="M1124.44,509.56 C1137.52,509.56 1148.44,504.04 1155.88,495.76 L1155.88,466.84 L1118.44,466.84 L1118.44,475.72 L1145.92,475.72 L1145.92,492.04 C1141.96,496 1134.04,500.68 1124.44,500.68 C1106.92,500.68 1093.6,487 1093.6,468.04 C1093.6,448.96 1106.92,435.52 1124.44,435.52 C1134.04,435.52 1142.56,440.08 1147.6,446.56 L1155.52,441.64 C1148.44,432.88 1138.6,426.64 1124.44,426.64 C1101.64,426.64 1083.28,443.2 1083.28,468.04 C1083.28,492.88 1101.64,509.56 1124.44,509.56 Z M1176.16,441.76 C1179.52,441.76 1182.28,439.12 1182.28,435.76 C1182.28,432.4 1179.52,429.64 1176.16,429.64 C1172.92,429.64 1170.16,432.4 1170.16,435.76 C1170.16,439.12 1172.92,441.76 1176.16,441.76 Z M1180.72,508 L1180.72,450.04 L1171.72,450.04 L1171.72,508 L1180.72,508 Z M1213.36,509.44 C1218.64,509.44 1221.88,507.88 1224.16,505.72 L1221.52,499 C1220.32,500.32 1217.92,501.4 1215.4,501.4 C1211.44,501.4 1209.52,498.28 1209.52,493.96 L1209.52,457.96 L1221.28,457.96 L1221.28,450.04 L1209.52,450.04 L1209.52,434.2 L1200.52,434.2 L1200.52,450.04 L1190.92,450.04 L1190.92,457.96 L1200.52,457.96 L1200.52,495.88 C1200.52,504.52 1204.84,509.44 1213.36,509.44 Z" id="Git"></path>
                <polygon id="+" points="674.52 74.24 674.52 64.76 653.04 64.76 653.04 41.36 642.6 41.36 642.6 64.76 621 64.76 621 74.24 642.6 74.24 642.6 98.6 653.04 98.6 653.04 74.24"></polygon>
            </g>
            <g id="GitHub-Mark" transform="translate(1011.000000, 0.000000)" fill="#161514">
                <path d="M260.441408,0.751484014 C117.146854,0.751484014 0.949653538,116.927199 0.949653538,260.243239 C0.949653538,374.893493 75.3019393,472.162078 178.405953,506.474221 C191.374525,508.876286 196.135684,500.845053 196.135684,493.991219 C196.135684,487.803431 195.895047,467.362246 195.783323,445.679206 C123.592466,461.376421 108.359336,415.062548 108.359336,415.062548 C96.5552715,385.068966 79.5474493,377.093595 79.5474493,377.093595 C56.0037763,360.988158 81.3221412,361.319033 81.3221412,361.319033 C107.379603,363.149587 121.100163,388.05973 121.100163,388.05973 C144.244208,427.730325 181.804939,416.261432 196.612659,409.631045 C198.941673,392.859562 205.666596,381.412155 213.087644,374.932166 C155.450979,368.370533 94.862224,346.120279 94.862224,246.690265 C94.862224,218.359651 104.999024,195.211308 121.598624,177.038979 C118.904358,170.503128 110.022304,144.110495 124.112412,108.367426 C124.112412,108.367426 145.902879,101.393274 195.491122,134.966319 C216.190132,129.216833 238.38882,126.333496 260.441408,126.234663 C282.493996,126.333496 304.709873,129.216833 325.447557,134.966319 C374.975641,101.393274 396.736028,108.367426 396.736028,108.367426 C410.860513,144.110495 401.974162,170.503128 399.279896,177.038979 C415.91817,195.211308 425.986216,218.359651 425.986216,246.690265 C425.986216,346.356619 365.28144,368.30178 307.498675,374.725907 C316.806139,382.778625 325.099493,398.570375 325.099493,422.780094 C325.099493,457.500459 324.798698,485.444337 324.798698,493.991219 C324.798698,500.896618 329.469619,508.98801 342.622965,506.439844 C445.671116,472.089028 519.928866,374.854819 519.928866,260.243239 C519.928866,116.927199 403.748854,0.751484014 260.441408,0.751484014" id="Fill-4"></path>
                <path d="M99.2323491,373.32506 C98.6608381,374.614183 96.6326188,375.000919 94.7848766,374.115722 C92.9027579,373.269198 91.8456774,371.511695 92.4558621,370.218275 C93.0144818,368.890479 95.0469982,368.520931 96.9248199,369.410425 C98.8112358,370.256949 99.8855045,372.031641 99.2323491,373.32506" id="Fill-5"></path>
                <path d="M109.742994,385.04748 C108.505437,386.194799 106.086183,385.661962 104.444701,383.848596 C102.747356,382.039528 102.429373,379.620275 103.684119,378.455768 C104.96035,377.308449 107.306553,377.845583 109.008194,379.654651 C110.705539,381.485205 111.036414,383.88727 109.742994,385.04748" id="Fill-6"></path>
                <path d="M119.974329,399.992707 C118.384412,401.097055 115.784681,400.06146 114.177575,397.753931 C112.587658,395.446401 112.587658,392.679085 114.211952,391.57044 C115.823355,390.461795 118.384412,391.458716 120.013003,393.749057 C121.598624,396.09526 121.598624,398.862576 119.974329,399.992707" id="Fill-7"></path>
                <path d="M133.991387,414.430878 C132.569056,415.99931 129.539618,415.578197 127.322327,413.438254 C125.053472,411.345578 124.421802,408.3763 125.848431,406.807867 C127.287951,405.235138 130.334577,405.677737 132.569056,407.800492 C134.820723,409.88887 135.508255,412.879634 133.991387,414.430878" id="Fill-8"></path>
                <path d="M153.328224,422.814471 C152.700851,424.846987 149.783137,425.770859 146.843938,424.907146 C143.909036,424.017652 141.988244,421.637073 142.58124,419.583071 C143.191425,417.537663 146.12203,416.575118 149.082714,417.498989 C152.013319,418.384187 153.938409,420.747578 153.328224,422.814471" id="Fill-9"></path>
                <path d="M174.564368,424.370012 C174.637418,426.509955 172.145115,428.284647 169.059815,428.323321 C165.957327,428.392074 163.447835,426.660353 163.413459,424.554786 C163.413459,422.393358 165.8499,420.635854 168.952388,420.584289 C172.037688,420.52413 174.564368,422.24296 174.564368,424.370012" id="Fill-10"></path>
                <path d="M194.326615,421.005403 C194.696164,423.093781 192.551923,425.238021 189.488109,425.809532 C186.475859,426.359558 183.687058,425.070435 183.304618,422.999245 C182.930773,420.859302 185.113687,418.715062 188.121639,418.160739 C191.18975,417.627902 193.935581,418.882648 194.326615,421.005403" id="Fill-11"></path>
            </g>
        </g>
    </g>
</svg>