<?xml version="1.0" encoding="UTF-8" standalone="no"?>
<svg width="110px" height="110px" viewBox="0 0 110 110" version="1.1" xmlns="http://www.w3.org/2000/svg" xmlns:xlink="http://www.w3.org/1999/xlink" xmlns:sketch="http://www.bohemiancoding.com/sketch/ns">
    <!-- Generator: Sketch 3.3.2 (12043) - http://www.bohemiancoding.com/sketch -->
    <title>network</title>
    <desc>Created with Sketch.</desc>
    <defs>
        <filter x="-50%" y="-50%" width="200%" height="200%" filterUnits="objectBoundingBox" id="filter-1">
            <feOffset dx="0" dy="2" in="SourceAlpha" result="shadowOffsetOuter1"></feOffset>
            <feGaussianBlur stdDeviation="2" in="shadowOffsetOuter1" result="shadowBlurOuter1"></feGaussianBlur>
            <feColorMatrix values="0 0 0 0 0   0 0 0 0 0   0 0 0 0 0  0 0 0 0.35 0" in="shadowBlurOuter1" type="matrix" result="shadowMatrixOuter1"></feColorMatrix>
            <feMerge>
                <feMergeNode in="shadowMatrixOuter1"></feMergeNode>
                <feMergeNode in="SourceGraphic"></feMergeNode>
            </feMerge>
        </filter>
        <filter x="-50%" y="-50%" width="200%" height="200%" filterUnits="objectBoundingBox" id="filter-2">
            <feOffset dx="0" dy="2" in="SourceAlpha" result="shadowOffsetOuter1"></feOffset>
            <feGaussianBlur stdDeviation="2" in="shadowOffsetOuter1" result="shadowBlurOuter1"></feGaussianBlur>
            <feColorMatrix values="0 0 0 0 0   0 0 0 0 0   0 0 0 0 0  0 0 0 0.35 0" in="shadowBlurOuter1" type="matrix" result="shadowMatrixOuter1"></feColorMatrix>
            <feMerge>
                <feMergeNode in="shadowMatrixOuter1"></feMergeNode>
                <feMergeNode in="SourceGraphic"></feMergeNode>
            </feMerge>
        </filter>
    </defs>
    <g id="first-round" stroke="none" stroke-width="1" fill="none" fill-rule="evenodd" sketch:type="MSPage">
        <g id="network" sketch:type="MSArtboardGroup">
            <rect id="Rectangle-472" opacity="0.8" fill="#212934" sketch:type="MSShapeGroup" x="0" y="0" width="110" height="110"></rect>
            <g id="Group" sketch:type="MSLayerGroup" transform="translate(55.914214, 66.914214) rotate(-45.000000) translate(-55.914214, -66.914214) translate(-33.585786, -29.585786)" stroke="#212934">
                <g id="app-pattern-copy-14" transform="translate(59.000000, 50.000000)" sketch:type="MSShapeGroup">
                    <rect id="Rectangle-4" x="0" y="7.10542736e-15" width="22" height="40" rx="2"></rect>
                    <path d="M10,3.5 L12,3.5" id="Line-Copy" stroke-linecap="square" filter="url(#filter-1)"></path>
                    <rect id="Rectangle-3-Copy-10" x="10" y="36" width="2" height="2" rx="50"></rect>
                    <rect id="Rectangle-3-Copy-2" x="3" y="6" width="16" height="28"></rect>
                </g>
                <g id="app-pattern-copy-15" transform="translate(99.000000, 100.000000)" sketch:type="MSShapeGroup">
                    <rect id="Rectangle-4" x="1.42108547e-14" y="2.84217094e-14" width="22" height="40" rx="2"></rect>
                    <path d="M10,3.5 L12,3.5" id="Line-Copy" stroke-linecap="square" filter="url(#filter-2)"></path>
                    <rect id="Rectangle-3-Copy-10" x="10" y="36" width="2" height="2" rx="50"></rect>
                    <rect id="Rectangle-3-Copy-2" x="3" y="6" width="16" height="28"></rect>
                </g>
                <g id="website-pattern" transform="translate(91.000000, 53.000000)" sketch:type="MSShapeGroup">
                    <rect id="Rectangle-4" x="0" y="0" width="48" height="36" rx="2"></rect>
                    <g id="Group" transform="translate(3.000000, 3.000000)">
                        <rect id="Rectangle-3-Copy" x="0" y="15" width="16" height="14"></rect>
                        <rect id="Rectangle-3-Copy-5" x="0" y="5" width="42" height="6"></rect>
                        <rect id="Rectangle-3-Copy-3" x="20" y="15" width="9" height="6"></rect>
                        <path d="M20,25 L29,25" id="Line-Copy-18" stroke-linecap="square"></path>
                        <path d="M20,29 L29,29" id="Line-Copy-20" stroke-linecap="square"></path>
                        <rect id="Rectangle-3-Copy-4" x="33" y="15" width="9" height="6"></rect>
                        <path d="M33,25 L42,25" id="Line-Copy-21" stroke-linecap="square"></path>
                        <path d="M33,29 L42,29" id="Line-Copy-23" stroke-linecap="square"></path>
                        <path d="M-1.66533454e-16,1 L42,1" id="Line-Copy" stroke-linecap="square"></path>
                    </g>
                </g>
                <g id="website-pattern-copy-4" transform="translate(1.000000, 51.000000)" sketch:type="MSShapeGroup">
                    <rect id="Rectangle-4" x="0" y="0" width="48" height="36" rx="2"></rect>
                    <g id="Group" transform="translate(3.000000, 3.000000)">
                        <rect id="Rectangle-3-Copy-5" x="0" y="5" width="42" height="6"></rect>
                        <rect id="Rectangle-3-Copy-3" x="20" y="15" width="9" height="6"></rect>
                        <path d="M20,25 L29,25" id="Line-Copy-18" stroke-linecap="square"></path>
                        <path d="M20,29 L29,29" id="Line-Copy-20" stroke-linecap="square"></path>
                        <rect id="Rectangle-3-Copy-4" x="33" y="15" width="9" height="6"></rect>
                        <path d="M33,25 L42,25" id="Line-Copy-21" stroke-linecap="square"></path>
                        <path d="M33,29 L42,29" id="Line-Copy-23" stroke-linecap="square"></path>
                    </g>
                </g>
                <g id="website-pattern-copy-3" transform="translate(131.000000, 102.000000)" sketch:type="MSShapeGroup">
                    <rect id="Rectangle-4" x="0" y="0" width="48" height="36" rx="2"></rect>
                    <g id="Group" transform="translate(3.000000, 3.000000)">
                        <rect id="Rectangle-3-Copy" x="0" y="15" width="16" height="14"></rect>
                        <rect id="Rectangle-3-Copy-5" x="0" y="5" width="42" height="6"></rect>
                        <path d="M-1.66533454e-16,1 L42,1" id="Line-Copy" stroke-linecap="square"></path>
                    </g>
                </g>
                <g id="app-pattern-copy-16" transform="translate(149.000000, 50.000000)" sketch:type="MSShapeGroup">
                    <rect id="Rectangle-4" x="0" y="1.42108547e-14" width="22" height="40" rx="2"></rect>
                    <rect id="Rectangle-3-Copy-10" x="10" y="36" width="2" height="2" rx="50"></rect>
                    <rect id="Rectangle-3-Copy-2" x="3" y="6" width="16" height="28"></rect>
                </g>
                <g id="website-pattern-copy" transform="translate(41.000000, 102.000000)" sketch:type="MSShapeGroup">
                    <rect id="Rectangle-4" x="0" y="0" width="48" height="36" rx="2"></rect>
                    <g id="Group" transform="translate(3.000000, 3.000000)">
                        <rect id="Rectangle-3-Copy" x="0" y="15" width="16" height="14"></rect>
                        <rect id="Rectangle-3-Copy-5" x="0" y="5" width="42" height="6"></rect>
                        <rect id="Rectangle-3-Copy-3" x="20" y="15" width="9" height="6"></rect>
                        <path d="M20,25 L29,25" id="Line-Copy-18" stroke-linecap="square"></path>
                        <path d="M20,29 L29,29" id="Line-Copy-20" stroke-linecap="square"></path>
                        <rect id="Rectangle-3-Copy-4" x="33" y="15" width="9" height="6"></rect>
                        <path d="M33,25 L42,25" id="Line-Copy-21" stroke-linecap="square"></path>
                        <path d="M33,29 L42,29" id="Line-Copy-23" stroke-linecap="square"></path>
                        <path d="M-1.66533454e-16,1 L42,1" id="Line-Copy" stroke-linecap="square"></path>
                    </g>
                </g>
                <g id="website-pattern-copy-5" transform="translate(91.000000, 152.000000)" sketch:type="MSShapeGroup">
                    <rect id="Rectangle-4" x="0" y="0" width="48" height="36" rx="2"></rect>
                    <g id="Group" transform="translate(3.000000, 3.000000)">
                        <rect id="Rectangle-3-Copy-5" x="0" y="5" width="42" height="6"></rect>
                        <path d="M-1.66533454e-16,1 L42,1" id="Line-Copy" stroke-linecap="square"></path>
                    </g>
                </g>
                <g id="app-pattern-copy-19" transform="translate(99.000000, 1.000000)" sketch:type="MSShapeGroup">
                    <rect id="Rectangle-4" x="0" y="8.8817842e-15" width="22" height="40" rx="2"></rect>
                    <rect id="Rectangle-3-Copy-10" x="10" y="36" width="2" height="2" rx="50"></rect>
                    <rect id="Rectangle-3-Copy-2" x="3" y="6" width="16" height="28"></rect>
                </g>
                <g id="website-pattern-copy-2" transform="translate(42.000000, 2.000000)" sketch:type="MSShapeGroup">
                    <rect id="Rectangle-4" x="0" y="0" width="48" height="36" rx="2"></rect>
                    <g id="Group" transform="translate(3.000000, 3.000000)">
                        <path d="M20,29 L29,29" id="Line-Copy-20" stroke-linecap="square"></path>
                        <rect id="Rectangle-3-Copy-4" x="33" y="15" width="9" height="6"></rect>
                        <path d="M33,25 L42,25" id="Line-Copy-21" stroke-linecap="square"></path>
                        <path d="M33,29 L42,29" id="Line-Copy-23" stroke-linecap="square"></path>
                    </g>
                </g>
            </g>
        </g>
    </g>
</svg>