<svg id="background" xmlns="http://www.w3.org/2000/svg" xmlns:xlink="http://www.w3.org/1999/xlink" viewBox="0 0 300 300"><defs><style>.cls-1{fill:url(#linear-gradient);}.cls-2{fill:#fff;}</style><linearGradient id="linear-gradient" x1="252.45" y1="327.45" x2="47.55" y2="-27.45" gradientUnits="userSpaceOnUse"><stop offset="0" stop-color="#5099de"/><stop offset="1" stop-color="#35bcab"/></linearGradient></defs><title>polyscribe-logo-square</title><rect class="cls-1" width="300" height="300"/><path class="cls-2" d="M112.77,219.19a8.69,8.69,0,1,1-17.38,0v-114a8.69,8.69,0,0,1,17.38,0v114Z"/><path class="cls-2" d="M135.73,182.23a8.69,8.69,0,1,1-17.38,0V124.07a8.69,8.69,0,1,1,17.38,0v58.15Z"/><path class="cls-2" d="M158.69,193.65a8.69,8.69,0,1,1-17.38,0V80.81a8.69,8.69,0,0,1,17.38,0V193.65Z"/><path class="cls-2" d="M181.65,177.89a8.69,8.69,0,1,1-17.38,0V99.65a8.69,8.69,0,0,1,17.38,0v78.24Z"/><path class="cls-2" d="M204.6,151.8a8.69,8.69,0,1,1-17.38,0V122.66a8.69,8.69,0,0,1,17.38,0V151.8Z"/></svg>