<svg id="background" xmlns="http://www.w3.org/2000/svg" viewBox="0 0 300 300"><title>polyscribe-logo-square</title><path d="M120.39,180.74a7,7,0,1,1-14.06,0V88.56a7,7,0,0,1,14.06,0v92.19Z"/><path d="M139,150.84a7,7,0,1,1-14.06,0v-47a7,7,0,1,1,14.06,0v47Z"/><path d="M157.53,160.08a7,7,0,1,1-14.06,0V68.8a7,7,0,0,1,14.06,0v91.28Z"/><path d="M176.1,147.34a7,7,0,1,1-14.06,0V84a7,7,0,0,1,14.06,0v63.29Z"/><path d="M194.67,126.23a7,7,0,1,1-14.06,0V102.66a7,7,0,0,1,14.06,0v23.57Z"/><path d="M97.13,221.14a6.38,6.38,0,0,1,2.4,2.41,6.76,6.76,0,0,1,.88,3.41,6.84,6.84,0,0,1-.85,3.4,6.32,6.32,0,0,1-5.63,3.28,6.2,6.2,0,0,1-2.86-.66,5.93,5.93,0,0,1-2.14-1.81v7a0.9,0.9,0,0,1-.94.94,0.87,0.87,0,0,1-.66-0.26,0.93,0.93,0,0,1-.25-0.67v-5.38a0.72,0.72,0,0,1,0-.22V227a6.75,6.75,0,0,1,.88-3.41,6.38,6.38,0,0,1,2.4-2.41A7,7,0,0,1,97.13,221.14Zm-0.91,10.16A4.64,4.64,0,0,0,98,229.52a5.45,5.45,0,0,0,0-5.11,4.73,4.73,0,0,0-1.75-1.8,4.79,4.79,0,0,0-2.48-.66,4.73,4.73,0,0,0-4.21,2.46,5.16,5.16,0,0,0-.64,2.56,5.32,5.32,0,0,0,0,.6,0.27,0.27,0,0,1,0,.12,4.81,4.81,0,0,0,1.57,3.07,4.65,4.65,0,0,0,3.23,1.2A4.86,4.86,0,0,0,96.21,231.31Z"/><path d="M106.58,232.77a6.23,6.23,0,0,1-2.39-2.39,6.81,6.81,0,0,1-.86-3.42,6.88,6.88,0,0,1,.86-3.43,6.2,6.2,0,0,1,2.39-2.4,6.81,6.81,0,0,1,3.42-.86,6.74,6.74,0,0,1,3.41.86,6.32,6.32,0,0,1,2.39,2.4,7.18,7.18,0,0,1,0,6.85,6.23,6.23,0,0,1-2.39,2.39A7.2,7.2,0,0,1,106.58,232.77Zm5.92-1.46a4.59,4.59,0,0,0,1.73-1.79,5.6,5.6,0,0,0,0-5.14,4.59,4.59,0,0,0-1.73-1.79,5.1,5.1,0,0,0-5,0,4.65,4.65,0,0,0-1.75,1.79,5.5,5.5,0,0,0,0,5.14,4.65,4.65,0,0,0,1.75,1.79A5.1,5.1,0,0,0,112.5,231.31Z"/><path d="M120.72,232.35a4.66,4.66,0,0,1-.92-3V215.68a0.87,0.87,0,0,1,.26-0.66,0.9,0.9,0,0,1,.65-0.25,0.86,0.86,0,0,1,.91.91v13.68A3,3,0,0,0,122,231a1.24,1.24,0,0,0,1.07.65h0.6a0.72,0.72,0,0,1,.58.25,1,1,0,0,1,.22.66,0.82,0.82,0,0,1-.3.66,1.17,1.17,0,0,1-.78.25H123.1A2.91,2.91,0,0,1,120.72,232.35Z"/><path d="M137.86,221.16a1.07,1.07,0,0,1-.1.43L130,238.68a0.73,0.73,0,0,1-.7.55,1,1,0,0,1-.43-0.1,0.75,0.75,0,0,1-.55-0.72,1.06,1.06,0,0,1,.1-0.43l2.38-5.26v0l-5.35-11.09a1,1,0,0,1-.1-0.43,0.74,0.74,0,0,1,.53-0.72,1,1,0,0,1,.43-0.1,0.74,0.74,0,0,1,.72.5l4.68,9.86,4.46-9.84a0.77,0.77,0,0,1,.72-0.53,1.05,1.05,0,0,1,.43.1A0.73,0.73,0,0,1,137.86,221.16Z"/><path d="M141.92,233.13a5.53,5.53,0,0,1-2.21-1.42,0.88,0.88,0,0,1-.24-0.55,0.91,0.91,0,0,1,.38-0.72,1,1,0,0,1,.6-0.22,0.89,0.89,0,0,1,.7.34,3.68,3.68,0,0,0,1.52,1,5.87,5.87,0,0,0,2.1.36,4.48,4.48,0,0,0,2.52-.58,1.82,1.82,0,0,0,.86-1.51,1.7,1.7,0,0,0-.84-1.44,6.72,6.72,0,0,0-2.66-.86,7.45,7.45,0,0,1-3.52-1.33,2.86,2.86,0,0,1-1.16-2.29,3.13,3.13,0,0,1,1.36-2.71,5.73,5.73,0,0,1,3.4-1,6.56,6.56,0,0,1,2.76.54,4.86,4.86,0,0,1,1.9,1.5,1.09,1.09,0,0,1,.19.55,0.73,0.73,0,0,1-.38.65,0.77,0.77,0,0,1-.46.12,1.1,1.1,0,0,1-.84-0.36,4.05,4.05,0,0,0-3.22-1.34,3.69,3.69,0,0,0-2.11.54,1.6,1.6,0,0,0,0,2.74,6.89,6.89,0,0,0,2.64.83,7.48,7.48,0,0,1,3.67,1.4,3.09,3.09,0,0,1,1.1,2.41,3.16,3.16,0,0,1-.66,2,4.28,4.28,0,0,1-1.84,1.34,7,7,0,0,1-2.66.48A8.19,8.19,0,0,1,141.92,233.13Z"/><path d="M155.62,232.76a6.3,6.3,0,0,1-2.34-2.4,6.84,6.84,0,0,1-.85-3.4,7.18,7.18,0,0,1,.82-3.44,6.07,6.07,0,0,1,2.26-2.39,6.17,6.17,0,0,1,3.24-.86,6,6,0,0,1,4.87,2.3,0.74,0.74,0,0,1,.19.5,0.82,0.82,0,0,1-.41.67,0.81,0.81,0,0,1-.46.14,1,1,0,0,1-.7-0.36,4.91,4.91,0,0,0-1.58-1.19,4.56,4.56,0,0,0-1.92-.4,4.39,4.39,0,0,0-2.35.64,4.22,4.22,0,0,0-1.6,1.79,5.81,5.81,0,0,0-.56,2.59,5.4,5.4,0,0,0,.6,2.56,4.47,4.47,0,0,0,1.68,1.79A4.71,4.71,0,0,0,159,232a4.53,4.53,0,0,0,3.1-1,1,1,0,0,1,.65-0.26,0.83,0.83,0,0,1,.53.19,0.84,0.84,0,0,1,.34.65,0.68,0.68,0,0,1-.24.53,6.16,6.16,0,0,1-4.37,1.61A6.5,6.5,0,0,1,155.62,232.76Z"/><path d="M175,220.51a0.82,0.82,0,0,1,.59.74,0.74,0.74,0,0,1,0,.22,0.73,0.73,0,0,1-.3.46,1.12,1.12,0,0,1-.56.12l-0.74,0a4.91,4.91,0,0,0-.58,0,4.41,4.41,0,0,0-2.94,1,3.11,3.11,0,0,0-1.14,2.5v7.18a0.91,0.91,0,1,1-1.82,0V221.3a0.91,0.91,0,1,1,1.82,0v1.06A4.76,4.76,0,0,1,171,220.8a5,5,0,0,1,2.33-.55A4,4,0,0,1,175,220.51Z"/><path d="M178.8,217.51a1.29,1.29,0,0,1-.37-0.94,1.22,1.22,0,0,1,.38-0.94,1.32,1.32,0,0,1,.94-0.36,1.29,1.29,0,0,1,.91.36,1.22,1.22,0,0,1,.38.94,1.31,1.31,0,0,1-1.32,1.32A1.23,1.23,0,0,1,178.8,217.51Zm0.28,15.74a0.91,0.91,0,0,1-.26-0.67V221.32a0.9,0.9,0,0,1,.94-0.94,0.87,0.87,0,0,1,.66.26,0.94,0.94,0,0,1,.25.67v11.26a0.93,0.93,0,0,1-.25.67,0.87,0.87,0,0,1-.66.26A0.91,0.91,0,0,1,179.07,233.25Z"/><path d="M195.52,221.14a6.33,6.33,0,0,1,2.33,2.4,6.84,6.84,0,0,1,.85,3.4,6.76,6.76,0,0,1-.88,3.41,6.37,6.37,0,0,1-2.4,2.41,7,7,0,0,1-6.79,0,6.37,6.37,0,0,1-2.4-2.41,6.75,6.75,0,0,1-.88-3.41V221.3a0.72,0.72,0,0,1,0-.22v-5.38a0.94,0.94,0,0,1,.25-0.67,0.87,0.87,0,0,1,.66-0.26,0.9,0.9,0,0,1,.94.94v7a5.94,5.94,0,0,1,2.14-1.81,6.2,6.2,0,0,1,2.86-.66A6.35,6.35,0,0,1,195.52,221.14Zm-1,10.15a4.73,4.73,0,0,0,1.75-1.8,5.45,5.45,0,0,0,0-5.11,4.64,4.64,0,0,0-1.75-1.79,4.86,4.86,0,0,0-2.48-.65,4.65,4.65,0,0,0-3.23,1.2,4.82,4.82,0,0,0-1.57,3.07,0.27,0.27,0,0,1,0,.12,5.33,5.33,0,0,0,0,.6,5.15,5.15,0,0,0,.64,2.56A4.89,4.89,0,0,0,194.52,231.3Z"/><path d="M211.06,221.1a5.65,5.65,0,0,1,2.12,2.29,7.17,7.17,0,0,1,.76,3.34,0.81,0.81,0,0,1-.24.61,0.87,0.87,0,0,1-.62.23h-9.7a4.72,4.72,0,0,0,4.9,4.42,5.34,5.34,0,0,0,1.74-.3,4.23,4.23,0,0,0,1.4-.76,1,1,0,0,1,.65-0.24,0.9,0.9,0,0,1,.53.19,0.86,0.86,0,0,1,.31.65,0.73,0.73,0,0,1-.26.55,6.52,6.52,0,0,1-2,1.12,7,7,0,0,1-5.78-.41,6.07,6.07,0,0,1-2.36-2.38,6.93,6.93,0,0,1-.85-3.44,7.32,7.32,0,0,1,.8-3.47,5.92,5.92,0,0,1,2.23-2.38,6.23,6.23,0,0,1,3.25-.85A6,6,0,0,1,211.06,221.1Zm-6.17,2a4.89,4.89,0,0,0-1.46,3h8.78a4.69,4.69,0,0,0-1.34-3,4,4,0,0,0-3-1.13A4.24,4.24,0,0,0,204.89,223.05Z"/></svg>