<?xml version="1.0" encoding="utf-8"?>
<!-- Generator: Adobe Illustrator 16.0.0, SVG Export Plug-In . SVG Version: 6.00 Build 0)  -->
<!DOCTYPE svg PUBLIC "-//W3C//DTD SVG 1.1//EN" "http://www.w3.org/Graphics/SVG/1.1/DTD/svg11.dtd">
<svg version="1.1" xmlns="http://www.w3.org/2000/svg" xmlns:xlink="http://www.w3.org/1999/xlink" x="0px" y="0px" width="412px"
	 height="412px" viewBox="0 0 412 412" enable-background="new 0 0 412 412" xml:space="preserve">
<pattern  x="-39" y="-38" width="72" height="72" patternUnits="userSpaceOnUse" id="Grid_1_pica_Lines" viewBox="72.25 -144.25 72 72" overflow="visible">
	<g>
		<polygon fill="none" points="72.25,-144.25 144.25,-144.25 144.25,-72.25 72.25,-72.25 		"/>
		<g>
			<line fill="none" stroke="#231F20" stroke-width="0.3" x1="78.25" y1="-72.5" x2="78.25" y2="0"/>
			<line fill="none" stroke="#231F20" stroke-width="0.3" x1="102.25" y1="-72.5" x2="102.25" y2="0"/>
			<line fill="none" stroke="#231F20" stroke-width="0.3" x1="126.25" y1="-72.5" x2="126.25" y2="0"/>
			<line fill="none" stroke="#231F20" stroke-width="0.3" x1="90.25" y1="-72.5" x2="90.25" y2="0"/>
			<line fill="none" stroke="#231F20" stroke-width="0.3" x1="114.25" y1="-72.5" x2="114.25" y2="0"/>
			<line fill="none" stroke="#231F20" stroke-width="0.3" x1="138.25" y1="-72.5" x2="138.25" y2="0"/>
		</g>
		<g>
			<line fill="none" stroke="#231F20" stroke-width="0.3" x1="144" y1="-78.25" x2="216.5" y2="-78.25"/>
			<line fill="none" stroke="#231F20" stroke-width="0.3" x1="144" y1="-102.25" x2="216.5" y2="-102.25"/>
			<line fill="none" stroke="#231F20" stroke-width="0.3" x1="144" y1="-126.25" x2="216.5" y2="-126.25"/>
			<line fill="none" stroke="#231F20" stroke-width="0.3" x1="144" y1="-90.25" x2="216.5" y2="-90.25"/>
			<line fill="none" stroke="#231F20" stroke-width="0.3" x1="144" y1="-114.25" x2="216.5" y2="-114.25"/>
			<line fill="none" stroke="#231F20" stroke-width="0.3" x1="144" y1="-138.25" x2="216.5" y2="-138.25"/>
		</g>
		<g>
			<line fill="none" stroke="#231F20" stroke-width="0.3" x1="78.25" y1="-144.5" x2="78.25" y2="-72"/>
			<line fill="none" stroke="#231F20" stroke-width="0.3" x1="102.25" y1="-144.5" x2="102.25" y2="-72"/>
			<line fill="none" stroke="#231F20" stroke-width="0.3" x1="126.25" y1="-144.5" x2="126.25" y2="-72"/>
			<line fill="none" stroke="#231F20" stroke-width="0.3" x1="72" y1="-78.25" x2="144.5" y2="-78.25"/>
			<line fill="none" stroke="#231F20" stroke-width="0.3" x1="72" y1="-102.25" x2="144.5" y2="-102.25"/>
			<line fill="none" stroke="#231F20" stroke-width="0.3" x1="72" y1="-126.25" x2="144.5" y2="-126.25"/>
			<line fill="none" stroke="#231F20" stroke-width="0.3" x1="72" y1="-90.25" x2="144.5" y2="-90.25"/>
			<line fill="none" stroke="#231F20" stroke-width="0.3" x1="72" y1="-114.25" x2="144.5" y2="-114.25"/>
			<line fill="none" stroke="#231F20" stroke-width="0.3" x1="72" y1="-138.25" x2="144.5" y2="-138.25"/>
			<line fill="none" stroke="#231F20" stroke-width="0.3" x1="90.25" y1="-144.5" x2="90.25" y2="-72"/>
			<line fill="none" stroke="#231F20" stroke-width="0.3" x1="114.25" y1="-144.5" x2="114.25" y2="-72"/>
			<line fill="none" stroke="#231F20" stroke-width="0.3" x1="138.25" y1="-144.5" x2="138.25" y2="-72"/>
		</g>
		<g>
			<line fill="none" stroke="#231F20" stroke-width="0.3" x1="0" y1="-78.25" x2="72.5" y2="-78.25"/>
			<line fill="none" stroke="#231F20" stroke-width="0.3" x1="0" y1="-102.25" x2="72.5" y2="-102.25"/>
			<line fill="none" stroke="#231F20" stroke-width="0.3" x1="0" y1="-126.25" x2="72.5" y2="-126.25"/>
			<line fill="none" stroke="#231F20" stroke-width="0.3" x1="0" y1="-90.25" x2="72.5" y2="-90.25"/>
			<line fill="none" stroke="#231F20" stroke-width="0.3" x1="0" y1="-114.25" x2="72.5" y2="-114.25"/>
			<line fill="none" stroke="#231F20" stroke-width="0.3" x1="0" y1="-138.25" x2="72.5" y2="-138.25"/>
		</g>
		<g>
			<line fill="none" stroke="#231F20" stroke-width="0.3" x1="78.25" y1="-216.5" x2="78.25" y2="-144"/>
			<line fill="none" stroke="#231F20" stroke-width="0.3" x1="102.25" y1="-216.5" x2="102.25" y2="-144"/>
			<line fill="none" stroke="#231F20" stroke-width="0.3" x1="126.25" y1="-216.5" x2="126.25" y2="-144"/>
			<line fill="none" stroke="#231F20" stroke-width="0.3" x1="90.25" y1="-216.5" x2="90.25" y2="-144"/>
			<line fill="none" stroke="#231F20" stroke-width="0.3" x1="114.25" y1="-216.5" x2="114.25" y2="-144"/>
			<line fill="none" stroke="#231F20" stroke-width="0.3" x1="138.25" y1="-216.5" x2="138.25" y2="-144"/>
		</g>
	</g>
</pattern>
<g id="Layer_3">
	<g>
		<ellipse fill="#467B83" cx="206.091" cy="206.221" rx="205.675" ry="205.779"/>
		<g opacity="0.5" enable-background="new    ">
			<g>
				<g>
					<defs>
						<path id="SVGID_1_" d="M205.443,0c113.591,0,205.675,92.13,205.675,205.779c0,113.646-92.084,205.779-205.675,205.779
							c-113.593,0-205.676-92.134-205.676-205.779C-0.233,92.13,91.85,0,205.443,0z"/>
					</defs>
					<clipPath id="SVGID_2_">
						<use xlink:href="#SVGID_1_"  overflow="visible"/>
					</clipPath>
					<g clip-path="url(#SVGID_2_)">
						<g>
							
								<line fill="none" stroke="#FFFFFF" stroke-width="0.5" stroke-miterlimit="10" x1="359.206" y1="562.755" x2="359.206" y2="-127.356"/>
							
								<line fill="none" stroke="#FFFFFF" stroke-width="0.5" stroke-miterlimit="10" x1="331.309" y1="562.755" x2="331.309" y2="-127.356"/>
							
								<line fill="none" stroke="#FFFFFF" stroke-width="0.5" stroke-miterlimit="10" x1="387.104" y1="562.059" x2="387.104" y2="-128.052"/>
							
								<line fill="none" stroke="#FFFFFF" stroke-width="0.5" stroke-miterlimit="10" x1="415.003" y1="562.755" x2="415.003" y2="-127.356"/>
							
								<line fill="none" stroke="#FFFFFF" stroke-width="0.5" stroke-miterlimit="10" x1="247.613" y1="562.755" x2="247.613" y2="-127.356"/>
							
								<line fill="none" stroke="#FFFFFF" stroke-width="0.5" stroke-miterlimit="10" x1="219.714" y1="562.755" x2="219.714" y2="-127.356"/>
							
								<line fill="none" stroke="#FFFFFF" stroke-width="0.5" stroke-miterlimit="10" x1="275.512" y1="562.059" x2="275.512" y2="-128.052"/>
							
								<line fill="none" stroke="#FFFFFF" stroke-width="0.5" stroke-miterlimit="10" x1="303.41" y1="562.755" x2="303.41" y2="-127.356"/>
							
								<line fill="none" stroke="#FFFFFF" stroke-width="0.5" stroke-miterlimit="10" x1="136.606" y1="563.101" x2="136.606" y2="-127.009"/>
							
								<line fill="none" stroke="#FFFFFF" stroke-width="0.5" stroke-miterlimit="10" x1="108.707" y1="563.101" x2="108.707" y2="-127.009"/>
							
								<line fill="none" stroke="#FFFFFF" stroke-width="0.5" stroke-miterlimit="10" x1="164.504" y1="562.407" x2="164.504" y2="-127.705"/>
							
								<line fill="none" stroke="#FFFFFF" stroke-width="0.5" stroke-miterlimit="10" x1="192.402" y1="563.101" x2="192.402" y2="-127.009"/>
							
								<line fill="none" stroke="#FFFFFF" stroke-width="0.5" stroke-miterlimit="10" x1="25.013" y1="563.101" x2="25.013" y2="-127.009"/>
							
								<line fill="none" stroke="#FFFFFF" stroke-width="0.5" stroke-miterlimit="10" x1="-2.886" y1="563.101" x2="-2.886" y2="-127.009"/>
							
								<line fill="none" stroke="#FFFFFF" stroke-width="0.5" stroke-miterlimit="10" x1="52.911" y1="562.407" x2="52.911" y2="-127.705"/>
							
								<line fill="none" stroke="#FFFFFF" stroke-width="0.5" stroke-miterlimit="10" x1="80.809" y1="563.101" x2="80.809" y2="-127.009"/>
						</g>
						<g>
							
								<line fill="none" stroke="#FFFFFF" stroke-width="0.5" stroke-miterlimit="10" x1="-125.341" y1="358.826" x2="564.425" y2="358.826"/>
							
								<line fill="none" stroke="#FFFFFF" stroke-width="0.5" stroke-miterlimit="10" x1="-125.341" y1="330.915" x2="564.425" y2="330.915"/>
							
								<line fill="none" stroke="#FFFFFF" stroke-width="0.5" stroke-miterlimit="10" x1="-124.646" y1="386.739" x2="565.119" y2="386.739"/>
							
								<line fill="none" stroke="#FFFFFF" stroke-width="0.5" stroke-miterlimit="10" x1="-125.341" y1="414.651" x2="564.425" y2="414.651"/>
							
								<line fill="none" stroke="#FFFFFF" stroke-width="0.5" stroke-miterlimit="10" x1="-125.341" y1="247.178" x2="564.425" y2="247.178"/>
							
								<line fill="none" stroke="#FFFFFF" stroke-width="0.5" stroke-miterlimit="10" x1="-125.341" y1="219.265" x2="564.425" y2="219.265"/>
							
								<line fill="none" stroke="#FFFFFF" stroke-width="0.5" stroke-miterlimit="10" x1="-124.646" y1="275.09" x2="565.119" y2="275.09"/>
							
								<line fill="none" stroke="#FFFFFF" stroke-width="0.5" stroke-miterlimit="10" x1="-125.341" y1="303.001" x2="564.425" y2="303.001"/>
							
								<line fill="none" stroke="#FFFFFF" stroke-width="0.5" stroke-miterlimit="10" x1="-125.688" y1="136.112" x2="564.074" y2="136.112"/>
							
								<line fill="none" stroke="#FFFFFF" stroke-width="0.5" stroke-miterlimit="10" x1="-125.688" y1="108.2" x2="564.074" y2="108.2"/>
							
								<line fill="none" stroke="#FFFFFF" stroke-width="0.5" stroke-miterlimit="10" x1="-124.993" y1="164.025" x2="564.771" y2="164.025"/>
							
								<line fill="none" stroke="#FFFFFF" stroke-width="0.5" stroke-miterlimit="10" x1="-125.688" y1="191.936" x2="564.074" y2="191.936"/>
							
								<line fill="none" stroke="#FFFFFF" stroke-width="0.5" stroke-miterlimit="10" x1="-125.688" y1="24.463" x2="564.074" y2="24.463"/>
							
								<line fill="none" stroke="#FFFFFF" stroke-width="0.5" stroke-miterlimit="10" x1="-125.688" y1="-3.448" x2="564.074" y2="-3.448"/>
							
								<line fill="none" stroke="#FFFFFF" stroke-width="0.5" stroke-miterlimit="10" x1="-124.993" y1="52.376" x2="564.771" y2="52.376"/>
							
								<line fill="none" stroke="#FFFFFF" stroke-width="0.5" stroke-miterlimit="10" x1="-125.688" y1="80.289" x2="564.074" y2="80.289"/>
						</g>
					</g>
				</g>
			</g>
		</g>
	</g>
</g>
<g id="Layer_2" display="none">
	<ellipse display="inline" fill="url(#Grid_1_pica_Lines)" cx="206" cy="205.992" rx="206" ry="205.991"/>
</g>
<g id="Layer_1" display="none">
	
		<rect x="104.5" y="124.5" transform="matrix(0.9854 -0.1705 0.1705 0.9854 -33.0308 35.4799)" display="inline" fill="#FFFFFF" stroke="#000000" stroke-width="3" stroke-miterlimit="10" width="171" height="171"/>
	
		<rect x="109.5" y="119.5" transform="matrix(0.9854 -0.1705 0.1705 0.9854 -32.1048 36.2594)" display="inline" fill="#FFFFFF" stroke="#000000" stroke-width="3" stroke-miterlimit="10" width="171" height="171"/>
	
		<rect x="118.5" y="110.5" transform="matrix(0.9854 -0.1705 0.1705 0.9854 -30.438 37.6624)" display="inline" fill="#FFFFFF" stroke="#000000" stroke-width="3" stroke-miterlimit="10" width="171" height="171"/>
	<g display="inline">
		<g>
			<path fill="#FFFFFF" d="M71.583,141.281c0.086-2.198-1.642-4.068-3.84-4.154l-19.22-0.756c-2.198-0.086-4.068,1.642-4.154,3.84
				l-4.357,110.755c-0.086,2.198,1.642,4.067,3.84,4.154l19.22,0.756c2.198,0.087,4.068-1.642,4.154-3.84L71.583,141.281z"/>
			<path fill="none" stroke="#000000" stroke-width="3" d="M71.583,141.281c0.086-2.198-1.642-4.068-3.84-4.154l-19.22-0.756
				c-2.198-0.086-4.068,1.642-4.154,3.84l-4.357,110.755c-0.086,2.198,1.642,4.067,3.84,4.154l19.22,0.756
				c2.198,0.087,4.068-1.642,4.154-3.84L71.583,141.281z"/>
		</g>
		<line fill="none" stroke="#000000" stroke-width="3" stroke-miterlimit="10" x1="54.704" y1="185.448" x2="69.823" y2="186.043"/>
		<line fill="none" stroke="#000000" stroke-width="3" stroke-miterlimit="10" x1="53.514" y1="215.687" x2="68.633" y2="216.281"/>
		<line fill="none" stroke="#000000" stroke-width="3" stroke-miterlimit="10" x1="60.05" y1="222.758" x2="68.366" y2="223.085"/>
		<line fill="none" stroke="#000000" stroke-width="3" stroke-miterlimit="10" x1="59.753" y1="230.317" x2="68.068" y2="230.645"/>
		<line fill="none" stroke="#000000" stroke-width="3" stroke-miterlimit="10" x1="59.485" y1="237.121" x2="67.801" y2="237.448"/>
		<line fill="none" stroke="#000000" stroke-width="3" stroke-miterlimit="10" x1="61.21" y1="193.275" x2="69.525" y2="193.603"/>
		<line fill="none" stroke="#000000" stroke-width="3" stroke-miterlimit="10" x1="60.913" y1="200.835" x2="69.228" y2="201.162"/>
		<line fill="none" stroke="#000000" stroke-width="3" stroke-miterlimit="10" x1="60.615" y1="208.395" x2="68.931" y2="208.722"/>
		<line fill="none" stroke="#000000" stroke-width="3" stroke-miterlimit="10" x1="62.399" y1="163.037" x2="70.715" y2="163.364"/>
		<line fill="none" stroke="#000000" stroke-width="3" stroke-miterlimit="10" x1="62.102" y1="170.597" x2="70.417" y2="170.924"/>
		<line fill="none" stroke="#000000" stroke-width="3" stroke-miterlimit="10" x1="61.805" y1="178.156" x2="70.12" y2="178.483"/>
		<circle fill="none" stroke="#000000" stroke-width="3" stroke-miterlimit="10" cx="57.598" cy="150.356" r="4.539"/>
	</g>
	<polygon display="inline" fill="#FFFFFF" stroke="#000000" stroke-width="3" stroke-miterlimit="10" points="84.426,120.25 
		74.5,156.393 74.5,242.5 94.5,242.5 94.5,156.393 	"/>
	
		<line display="inline" fill="#FFFFFF" stroke="#000000" stroke-width="3" stroke-miterlimit="10" x1="74" y1="247.5" x2="95" y2="247.5"/>
	
		<line display="inline" fill="#FFFFFF" stroke="#000000" stroke-width="3" stroke-miterlimit="10" x1="74" y1="251.5" x2="95" y2="251.5"/>
	
		<line display="inline" fill="none" stroke="#000000" stroke-width="3" stroke-miterlimit="10" x1="81.5" y1="166" x2="81.5" y2="233"/>
	
		<line display="inline" fill="none" stroke="#000000" stroke-width="3" stroke-miterlimit="10" x1="87.5" y1="166" x2="87.5" y2="233"/>
	<path display="inline" fill="none" stroke="#000000" stroke-width="3" stroke-miterlimit="10" d="M74.647,156.393
		c0,0,3.517-6.052,6.849,0c0,0,3.332-6.052,6.664,0c0,0,2.961-6.052,6.478,0"/>
	<path display="inline" stroke="#000000" stroke-miterlimit="10" d="M84.152,118.25l2.493,8.457c0,0-2.169,4.774-4.951,0
		L84.152,118.25z"/>
	<path display="inline" fill="#FFFFFF" stroke="#000000" stroke-width="3" stroke-miterlimit="10" d="M84.567,266.5h-7.009
		c-3.505,0-3.505-10-3.505-10h10.514h10.514c0,0,0,10-3.504,10H84.567z"/>
	<g display="inline">
		<g>
			<circle fill="#FFFFFF" stroke="#000000" stroke-width="3" stroke-miterlimit="10" cx="311.5" cy="199.5" r="58.5"/>
			<circle stroke="#000000" stroke-width="3" stroke-miterlimit="10" cx="311.5" cy="199.5" r="47.864"/>
			<g>
				<path fill="#FFFFFF" d="M374.908,258.789c0.718,0.833,0.623,2.103-0.211,2.82l-7.545,6.493c-0.834,0.718-2.103,0.622-2.82-0.211
					l-17.411-20.231c-0.718-0.833-0.622-2.103,0.211-2.82l7.545-6.493c0.833-0.718,2.103-0.622,2.82,0.211L374.908,258.789z"/>
				<path fill="none" stroke="#000000" stroke-width="3" stroke-miterlimit="10" d="M374.908,258.789
					c0.718,0.833,0.623,2.103-0.211,2.82l-7.545,6.493c-0.834,0.718-2.103,0.622-2.82-0.211l-17.411-20.231
					c-0.718-0.833-0.622-2.103,0.211-2.82l7.545-6.493c0.833-0.718,2.103-0.622,2.82,0.211L374.908,258.789z"/>
			</g>
		</g>
		
			<ellipse transform="matrix(0.8107 -0.5854 0.5854 0.8107 -39.5381 234.3439)" fill="#FFFFFF" stroke="#000000" stroke-width="3" stroke-miterlimit="10" cx="342.646" cy="178.318" rx="4.5" ry="14.958"/>
	</g>
	<path display="inline" d="M187.13,114.867l-9.79-1.044c-4.986-0.34-51.895-12.659-72.575-6.557l1.17,7.25
		c0,0,4.281,0.671,8.462,18.309c5.89,24.831,51.027,22.912,57.727,4.626c2.208-6.026,3.075-9.719,4.293-14.979
		c0,0,5.165-6.382,9.79,1.044c0,0,0.15,9.191,1.044,15.548c2.691,19.288,46.407,30.681,57.399,7.651
		c7.811-16.36,12.132-16.113,12.132-16.113l2.673-6.841C240.529,113.437,192.078,115.585,187.13,114.867z M111.252,111.626
		c-1.936-0.206-3.417-1.152-3.313-2.122c0.104-0.967,1.75-1.579,3.686-1.373c1.932,0.207,3.419,1.152,3.316,2.119
		C114.837,111.22,113.184,111.832,111.252,111.626z M171.614,126.689c-0.934,8.046-6.709,14.551-6.709,14.551
		c-4.882,6.149-15.536,7.388-15.536,7.388c-20.868,0.405-27.324-6.892-27.324-6.892c-5.333-5.701-3.982-24.349-3.982-24.349
		c0.808-6.203,7.516-7.413,7.516-7.413c14.438-1.866,31.771,2.748,31.771,2.748c10.84,2.443,13.713,6.979,13.713,6.979
		C172.492,121.781,171.614,126.689,171.614,126.689z M235.633,154.113c0,0-7.886,5.885-28.3,1.034c0,0-10.197-3.503-13.67-10.663
		c0,0-4.287-7.707-3.487-15.92c0,0,0.187-5.07,2.027-6.84c0,0,3.791-3.897,14.957-4.018c0,0,17.999-0.891,31.786,4.043
		c0,0,6.334,2.631,5.797,8.977C244.74,130.731,242.089,149.577,235.633,154.113z M251.975,126.633
		c-1.929-0.206-3.416-1.152-3.312-2.122c0.103-0.967,1.752-1.579,3.685-1.373c1.932,0.206,3.418,1.152,3.315,2.119
		C255.559,126.226,253.907,126.839,251.975,126.633z"/>
	<g display="inline">
		<g>
			<path d="M187.757,223.705c-5.467-2.828-23.208-9.04-24.696,1.716c-0.8,5.777,4.903,12.279,9,15.53
				c6.338,5.029,15.213,5.69,22.939,6.549c1.921,0.214,1.901-2.789,0-3c-11.715-1.302-24.81-3.726-28.793-16.73
				c-2.993-9.771,16.919-3.087,20.037-1.475C187.958,227.183,189.476,224.594,187.757,223.705L187.757,223.705z"/>
		</g>
	</g>
	<g display="inline">
		<g>
			<path d="M191.5,227c-0.644-5.95,1.153-11.749,5.374-16.05c5.777-5.885,12.927-1.007,15.588,5.361
				c2.334,5.587-0.319,12.73-2.542,17.92c-2.246,5.244-5.323,10.329-8.98,14.708c-1.231,1.474,0.88,3.607,2.121,2.121
				c8.171-9.783,19.334-28.849,9.241-40.719C200.604,196.585,187.1,214.058,188.5,227C188.706,228.902,191.708,228.922,191.5,227
				L191.5,227z"/>
		</g>
	</g>
	<g display="inline">
		
			<rect x="260.238" y="246.754" transform="matrix(-0.3892 0.9212 -0.9212 -0.3892 630.3745 139.3998)" fill="#FFFFFF" stroke="#000000" stroke-width="2" stroke-miterlimit="10" width="17.466" height="63.879"/>
		<path stroke="#000000" stroke-width="2" stroke-miterlimit="10" d="M294.086,301.314l38.94,16.451c0,0,24.187,10.339,27.086,3.474
			c2.9-6.864,0,0,2.9-6.864c2.899-6.861-21.83-15.915-21.83-15.915l-38.939-16.453L294.086,301.314z"/>
		
			<rect x="338.175" y="318.34" transform="matrix(0.3892 -0.9212 0.9212 0.3892 -85.4416 514.4054)" stroke="#000000" stroke-width="2" stroke-miterlimit="10" width="13.972" height="6.578"/>
		<g>
			<path d="M342.41,325.658c2.026,0.856,3.48,2.039,3.23,2.629c-0.249,0.591-2.111,0.373-4.138-0.483l-43.428-18.349
				c-2.026-0.856-2.628-1.679-1.337-1.828c1.291-0.15,4.006,0.428,6.032,1.284L342.41,325.658z"/>
			<path fill="none" stroke="#000000" stroke-width="2" stroke-miterlimit="10" d="M342.41,325.658
				c2.026,0.856,3.48,2.039,3.23,2.629c-0.249,0.591-2.111,0.373-4.138-0.483l-43.428-18.349c-2.026-0.856-2.628-1.679-1.337-1.828
				c1.291-0.15,4.006,0.428,6.032,1.284L342.41,325.658z"/>
		</g>
		<path stroke="#000000" stroke-miterlimit="10" d="M204.492,251.541c0.392-0.928,6.807-0.281,6.807-0.281l6.035,2.154
			c0,0,8.278-3.151,14.172-0.661c5.894,2.487,12.103,5.112,12.103,5.112l-7.251,17.16c0,0-6.208-2.624-12.103-5.113
			c-5.894-2.488-9.337-10.777-9.337-10.777l-6.031-2.773C208.886,256.361,204.098,252.472,204.492,251.541z"/>
	</g>
</g>
<g id="Layer_4">
	<path fill="#FFFFFF" stroke="#000000" stroke-width="3" stroke-miterlimit="10" d="M331.5,264.5c0,6.627-5.373,12-12,12h-228
		c-6.627,0-12-5.373-12-12v-147c0-6.627,5.373-12,12-12h228c6.627,0,12,5.373,12,12V264.5z"/>
	<path fill="#FFFFFF" stroke="#000000" stroke-width="3" stroke-miterlimit="10" d="M228.517,286v3.25c0,1.797-1.453,3.25-3.25,3.25
		h-39c-1.796,0-3.25-1.453-3.25-3.25V286H43.267v6.5c0,0,0,9.75,9.75,9.75h305.5c9.75,0,9.75-9.75,9.75-9.75V286H228.517z"/>
	<rect x="97.5" y="122.5" stroke="#000000" stroke-width="3" stroke-miterlimit="10" width="216" height="135"/>
	<g>
		<path fill="#FFFFFF" d="M197.518,198.487v6.119l-21.751-9.427v-5.232l21.751-9.427v6.162l-15.155,5.839L197.518,198.487z"/>
		<path fill="#FFFFFF" d="M210.967,180.389l-6.056,24.929c-0.201,0.822-0.377,1.471-0.528,1.947
			c-0.151,0.475-0.382,0.848-0.691,1.111c-0.31,0.268-0.761,0.4-1.352,0.4c-1.47,0-2.206-0.637-2.206-1.902
			c0-0.332,0.145-1.16,0.433-2.486l6.033-24.93c0.317-1.326,0.619-2.234,0.907-2.724c0.289-0.49,0.851-0.735,1.688-0.735
			c0.721,0,1.271,0.173,1.653,0.519c0.382,0.346,0.573,0.822,0.573,1.427C211.421,178.393,211.269,179.207,210.967,180.389z"/>
		<path fill="#FFFFFF" d="M235.767,195.178l-21.751,9.47v-6.119l15.2-5.967l-15.2-5.882v-6.076l21.751,9.384V195.178z"/>
	</g>
</g>
</svg>
